<svg xmlns="http://www.w3.org/2000/svg">
    <symbol id="heart" viewBox="0 0 512 512">
        <title>Heart</title>
        <path fill="currentColor" d="M462.3 62.6C407.5 15.9 326 24.3 275.7 76.2L256 96.5l-19.7-20.3C186.1 24.3 104.5 15.9 49.7 62.6c-62.8 53.6-66.1 149.8-9.9 207.9l193.5 199.8c12.5 12.9 32.8 12.9 45.3 0l193.5-199.8c56.3-58.1 53-154.3-9.8-207.9z" class=""></path>
    </symbol>
    <symbol id="wink" viewBox="0 0 496 512">
        <title>Wink</title>
        <path fill="currentColor" d="M248 8C111 8 0 119 0 256s111 248 248 248 248-111 248-248S385 8 248 8zm20.1 198.1c4-25.2 34.2-42.1 59.9-42.1s55.9 16.9 59.9 42.1c1.7 11.1-11.4 18.3-19.8 10.8l-9.5-8.5c-14.8-13.2-46.2-13.2-61 0L288 217c-8.4 7.4-21.6.3-19.9-10.9zM168 160c17.7 0 32 14.3 32 32s-14.3 32-32 32-32-14.3-32-32 14.3-32 32-32zm230.9 146C390 377 329.4 432 256 432h-16c-73.4 0-134-55-142.9-126-1.2-9.5 6.3-18 15.9-18h270c9.6 0 17.1 8.4 15.9 18z" class=""></path>
    </symbol>
    <symbol id="smile" viewBox="0 0 496 512">
        <title>Smile</title>
        <path fill="currentColor" d="M248 8C111 8 0 119 0 256s111 248 248 248 248-111 248-248S385 8 248 8zM112 223.4c3.3-42.1 32.2-71.4 56-71.4s52.7 29.3 56 71.4c.7 8.6-10.8 11.9-14.9 4.5l-9.5-17c-7.7-13.7-19.2-21.6-31.5-21.6s-23.8 7.9-31.5 21.6l-9.5 17c-4.3 7.4-15.8 4-15.1-4.5zm250.8 122.8C334.3 380.4 292.5 400 248 400s-86.3-19.6-114.8-53.8c-13.5-16.3 11-36.7 24.6-20.5 22.4 26.9 55.2 42.2 90.2 42.2s67.8-15.4 90.2-42.2c13.6-16.2 38.1 4.3 24.6 20.5zm6.2-118.3l-9.5-17c-7.7-13.7-19.2-21.6-31.5-21.6s-23.8 7.9-31.5 21.6l-9.5 17c-4.1 7.3-15.6 4-14.9-4.5 3.3-42.1 32.2-71.4 56-71.4s52.7 29.3 56 71.4c.6 8.6-11 11.9-15.1 4.5z" class=""></path>
    </symbol>
    <symbol id="flower" viewBox="0 0 512 512">
        <title>Flower</title>
        <path fill="currentColor" d="M495.87 320h-47.26c-63 0-119.82 22.23-160.61 57.92v-96.67A79.8 79.8 0 0 0 367.56 144 79.78 79.78 0 1 0 256 32.44 79.78 79.78 0 1 0 144.44 144 79.81 79.81 0 0 0 224 281.25v96.67C183.21 342.23 126.37 320 63.39 320H16.13c-9.19 0-17 7.72-16.06 16.84C10.06 435 106.43 512 223.83 512h64.34c117.4 0 213.77-77 223.76-175.16.92-9.12-6.87-16.84-16.06-16.84zM256 192a48 48 0 1 1 48-48 48 48 0 0 1-48 48z" class=""></path>
    </symbol>
    <symbol id="notif" viewBox="0 0 448 512">
        <title>Notification</title>
        <path fill="currentColor" d="M224 512c35.32 0 63.97-28.65 63.97-64H160.03c0 35.35 28.65 64 63.97 64zm215.39-149.71c-19.32-20.76-55.47-51.99-55.47-154.29 0-77.7-54.48-139.9-127.94-155.16V32c0-17.67-14.32-32-31.98-32s-31.98 14.33-31.98 32v20.84C118.56 68.1 64.08 130.3 64.08 208c0 102.3-36.15 133.53-55.47 154.29-6 6.45-8.66 14.16-8.61 21.71.11 16.4 12.98 32 32.1 32h383.8c19.12 0 32-15.6 32.1-32 .05-7.55-2.61-15.27-8.61-21.71z" class=""></path>
    </symbol>
    <symbol id="sign" viewBox="0 0 512 512">
        <path fill="currentColor" d="M416 448h-84c-6.6 0-12-5.4-12-12v-40c0-6.6 5.4-12 12-12h84c17.7 0 32-14.3 32-32V160c0-17.7-14.3-32-32-32h-84c-6.6 0-12-5.4-12-12V76c0-6.6 5.4-12 12-12h84c53 0 96 43 96 96v192c0 53-43 96-96 96zm-47-201L201 79c-15-15-41-4.5-41 17v96H24c-13.3 0-24 10.7-24 24v96c0 13.3 10.7 24 24 24h136v96c0 21.5 26 32 41 17l168-168c9.3-9.4 9.3-24.6 0-34z" class=""></path>
    </symbol>
</svg>
